<?xml version="1.0" encoding="utf-8"?>
<!-- Generator: Adobe Illustrator 24.0.1, SVG Export Plug-In . SVG Version: 6.00 Build 0)  -->
<svg version="1.1" id="Layer_1" xmlns="http://www.w3.org/2000/svg" xmlns:xlink="http://www.w3.org/1999/xlink" x="0px" y="0px"
	 viewBox="0 0 96 41" style="enable-background:new 0 0 96 41;" xml:space="preserve">
<style type="text/css">
	.st0{fill:#ED1C24;}
	.st1{fill:none;stroke:#F26522;stroke-width:0.5659;}
	.st2{fill-rule:evenodd;clip-rule:evenodd;}
</style>
<g>
	<path class="st0" d="M57.4,28.7c2.3,0,4.2-2.5,4.2-5.2s-1.9-5.2-4.2-5.2c-2.3,0-4.2,2.5-4.2,5.2C53,26.5,54.9,28.7,57.4,28.7"/>
	<line class="st1" x1="57.4" y1="17.5" x2="57.4" y2="14.8"/>
	<line class="st1" x1="59.7" y1="18.3" x2="60.7" y2="15.8"/>
	<line class="st1" x1="61.4" y1="20.5" x2="63.3" y2="19"/>
	<line class="st1" x1="54.9" y1="18.3" x2="54" y2="15.8"/>
	<line class="st1" x1="53.2" y1="20.3" x2="51.5" y2="19"/>
	<path class="st2" d="M51.7,20.8l-0.8-0.5C50.5,21,49.8,21,49.8,21H37.6v0.2c1.5,0.2,1.3,1.2,1.3,1.2v5.2c-1.5-1.5-3.2-1.7-3.2-1.7
		c1-0.7,1.7-1.5,2.1-2c0.4-0.5,0-1.2,0-1.2c-0.6-1-1-1.5-1.3-1.7c-1-1-1.7-0.5-1.7-0.5l-1.3,1c-2.9-2-4.4-0.2-4.4-0.2v0.5
		c-4.4-3.7-7.2,1-7.2,1V24h2.9l-1.1,1.5v2L29,25v3.5c0,0-1-0.7-2.7-0.5c-0.6,0-2.1,0.7-2.5,0.7c-2.1,0.5-2.3-1.2-2.3-1.5
		c0-0.5,0-0.5,0-0.7c0-0.5,0.6-0.5,0.6-0.5c0-0.2,0-1,0-1h-2.5c0,0,0,1,0,1.7c0,2.7,1.9,3.7,2.1,3.7c2.1,0.7,3.2-1,4.4-1.2
		c1.5-0.2,2.7,1.2,2.7,1.2v0.5h2.1v-8.7c0-0.5,0.4-0.5,0.4-0.7c1-0.2,1.3,0,1.3,0S32.4,21.8,32,22s-0.2,1.5-0.2,2
		c0,0.5,0.8,0.7,0.8,0.7l0.6-0.5c-0.6-0.5-0.2-0.7-0.2-0.7s2.3-1.5,2.7-1.5s0.6,0,0.6,0c0,0.2-0.2,0.5-0.2,0.5
		c-3.4,2.7-4.6,3.5-4.6,3.5v2.7c4.2-2.7,7.1,0.5,7.1,0.5v1.2h2.1v-8c0-1-0.6-1.5-0.6-1.5h3.6c0,0-1.1,0.5-1.5,0.7
		c-0.6,0.5-0.4,1.2-0.4,1.2l2.5,1.2c0,0,0.4,0,0.4,0.5c0,0.2-0.4,0.5-0.4,0.5s-1.5,0.2-2.1,1c-0.6,0.5-0.4,1-0.4,1v1.2v0.2
		c0.6,0.7,1.7,1,1.7,1l1-0.5c-1,0-1-0.2-1-0.5c0-0.2,0.2-0.7,2.1-1c1.7,0,3.4,1.5,3.4,1.5v1.2h2.1v-8c0-1.2-0.8-1.5-0.8-1.5
		C51.3,21.5,51.7,20.8,51.7,20.8 M25.8,24.2h-0.2C25.6,24.2,25.6,24.2,25.8,24.2l0.4-0.7c0,0,0.4-0.5-0.2-0.5s-1.5,0-1.5,0
		s-0.2,0-0.4,0v-0.2c0.2-0.2,3.6-1.2,4.6,0.2L25.8,24.2z M47.9,25.5c0,0,0.2-0.7-1-1.2c-0.2,0-1.1-0.7-2.1-1.2c-0.2,0-0.2-0.5,0-0.5
		c0.4-0.2,1.9-0.7,1.9-0.7h1.3c0,0,1,0,1,1.2v4.7c0,0-0.8-1-2.3-1.5L47.9,25.5z"/>
	<path class="st2" d="M86.2,20.8l-0.8-0.5C85.1,21,84.3,21,84.3,21l0,0H55.7v1h2.1c-2.3,1-2.1,2.2-2.1,2.2v2.5
		c0.2,1.2,1.7,0.7,1.7,0.7s0.8-0.2,1.3-0.5c0.8-0.2,1.1-0.7,1.1-0.7c1-0.5,0.6-1.5,0.6-1.5c-0.2-0.5-1-1.5-1-1.5l-0.8,0.2l0.2,0.2
		c0.4,0.2-0.2,0.7-0.2,0.7L57.4,25c-0.8,0.2-0.6-0.2-0.4-0.2c0.2-0.5,1-1,1.3-1.2c2.1-1.5,2.7-0.2,2.9,0c1.5,2.2,0.2,3.7-0.2,4.2
		c-2.3,2.7-4.6,2.2-4.8,2.2C54,29.5,54,28.7,54,28.7l0.2-0.5l-0.8-0.5l-1.7,2.5c6.3,5.7,10.9-1.7,10.9-1.7c1,0.5,1.5,1.2,1.5,1.2v1
		h2.1v-8c0-1.2-0.6-1.2-0.6-1.2h0.8c0.8,0.2,0.6,1.2,0.6,1.2v8H69v-8c0-1.2-0.6-1.2-0.6-1.2h4.2c-0.4,0.2-1,0.7-1.9,1.7
		c-1,1-0.8,2.2-0.8,2.2V28c0,0.5,0.4,1,0.4,1.2c1.1,1.2,2.5,2,3.1,2.2c1.5,0.5,2.1-0.5,2.1-0.5l1-1l-0.8-0.5c-0.6,1-2.1-0.2-2.1-0.2
		s-0.8-0.5-1.1-1c-1-0.7-0.8-1-0.8-1v-2.7c0-0.7,2.5-2.5,2.5-2.5h5.9c0.8,0.2,0.6,1.5,0.6,1.5v1.7c-1-1-1.7-0.5-1.7-0.5l-1.1,0.7
		c0,0,0.2-0.5,0.6-1.2c0.4-0.7,0-0.7,0-0.7s-0.4-0.2-1.1-0.7c-1.3-0.7-2.1,0-2.1,0s-1,0.7-1.9,1.5C72.5,25,72.5,26,72.5,26v1.2
		c0.4,1,1.7,0.7,1.7,0.7l0.4-0.7c-0.8,0-0.6-0.5-0.6-0.5l2.9-2.2c0,0,0.4-0.2,0.4,0c0.2,0.2,0,0.2,0,0.2c-0.4,0.2-1.3,2.2-1.3,2.5
		c-0.4,1.5,0.4,2,0.4,2l3.4-2.2c0.8-0.5,1,0.2,1,0.2v4.2h2.1v-8c0-1-0.6-1.5-0.6-1.5H83c0.8,0.5,0.6,1.5,0.6,1.5v8h2.1v-8
		c0-1.2-0.8-1.5-0.8-1.5C85.8,21.5,86.2,20.8,86.2,20.8 M63.9,28c0,0-0.4-0.7-1-1c0,0,0.2-3.5-2.7-5h3.1c0,0,0.6,0.2,0.6,1.2
		L63.9,28L63.9,28z"/>
</g>
</svg>
